<svg width="57" height="42" viewBox="0 0 57 42" fill="none" xmlns="http://www.w3.org/2000/svg">
<path fill-rule="evenodd" clip-rule="evenodd" d="M3 3H53.2249V38.4659H3V3ZM0 0H3H53.2249H56.2249V3V38.4659V41.4659H53.2249H3H0V38.4659V3V0ZM43.9257 20.3815C43.7274 20.3815 43.532 20.3699 43.3403 20.3472L38.8133 25.3362C39.1597 25.9484 39.3574 26.6559 39.3574 27.4096C39.3574 29.7386 37.4695 31.6265 35.1406 31.6265C32.8116 31.6265 30.9237 29.7386 30.9237 27.4096C30.9237 27.0081 30.9798 26.6196 31.0847 26.2517L23.1481 19.8429C22.538 20.1859 21.834 20.3815 21.0843 20.3815C20.8641 20.3815 20.6478 20.3646 20.4367 20.3321L16.1061 25.0779C16.5872 25.7458 16.8675 26.5475 16.8675 27.4096C16.8675 29.7386 14.8222 31.6265 12.2992 31.6265C9.77621 31.6265 7.73092 29.7386 7.73092 27.4096C7.73092 25.0807 9.77621 23.1928 12.2992 23.1928C12.7531 23.1928 13.1916 23.2539 13.6054 23.3677L17.7834 18.789C17.2101 18.0688 16.8675 17.1568 16.8675 16.1647C16.8675 13.8357 18.7554 11.9478 21.0843 11.9478C23.4132 11.9478 25.3012 13.8357 25.3012 16.1647C25.3012 16.6463 25.2204 17.1091 25.0717 17.5403L32.8827 23.8476C33.5354 23.4329 34.31 23.1928 35.1406 23.1928C35.6174 23.1928 36.0757 23.2719 36.5031 23.4177L40.5274 18.9828C39.8 18.2359 39.3574 17.248 39.3574 16.1647C39.3574 13.8357 41.4027 11.9478 43.9257 11.9478C46.4487 11.9478 48.494 13.8357 48.494 16.1647C48.494 18.4936 46.4487 20.3815 43.9257 20.3815Z" fill="black"/>
</svg>
