<svg width="57" height="41" viewBox="0 0 57 41" fill="none" xmlns="http://www.w3.org/2000/svg">
<path fill-rule="evenodd" clip-rule="evenodd" d="M56.035 12.1892V3V0H56.0349H53.035H53.0349H43.9055H40.9055H15.1295H12.1295H3H0V3V10.8513V12.1892V13.8513V15.1892V24.7026V26.0405V27.7026V29.0405V38V41H3H12.1295H15.1295H40.9055H43.9055H53.035H56.035V38V29.0405V27.7026V26.0405V24.7026V15.1892V12.1892ZM15.1295 24.7026V26.0405V27.7026V29.0405V38H40.9055V29.0405V27.7026V26.0405V24.7026V15.1892V13.8513H40.9055V10.8513V3H15.1295V10.8513V12.1892V13.8513V15.1892V24.7026ZM3 38V29.0405H12.1295V38H3ZM53.035 29.0405H43.9055V38H53.035V29.0405ZM3 24.7026V15.1892H12.1295V24.7026H3ZM53.035 24.7026V15.1892H43.9055V24.7026H53.035ZM3 3H12.1295V10.8513H3V3ZM43.9055 3V10.8513H53.0349V3H43.9055ZM22.554 28.4598L36.4226 20.4527L22.554 12.4457V28.4598Z" fill="black"/>
</svg>
