<svg width="55" height="55" viewBox="0 0 55 55" fill="none" xmlns="http://www.w3.org/2000/svg">
<path fill-rule="evenodd" clip-rule="evenodd" d="M18.9839 43.5912L22.5485 51.3352C11.5558 49.1138 3.24065 39.5064 3.00513 27.9152L8.37372 31.7027L11.4944 40.9493L18.9839 43.5912ZM43.335 8.9101L43.8554 22.5368L48.7283 32.2825V39.3076C45.037 45.9074 38.3699 50.617 30.5433 51.62L32.7147 38.9679H21.4804L17.1115 28.4003L28.3458 26.4189L30.0905 3.14553C35.1235 3.69534 39.6967 5.7752 43.335 8.9101ZM27.4096 54.8193C42.5476 54.8193 54.8193 42.5476 54.8193 27.4096C54.8193 12.2717 42.5476 0 27.4096 0C12.2717 0 0 12.2717 0 27.4096C0 42.5476 12.2717 54.8193 27.4096 54.8193Z" fill="black"/>
</svg>
