<svg width="26" height="23" viewBox="0 0 26 23" fill="none" xmlns="http://www.w3.org/2000/svg">
<path d="M22.7707 6.96428C20.1457 1.18067 12.9583 -2.12655 5.75841 1.54029C4.21843 2.324 2.3072 4.2374 1.52347 5.76887C-1.214 11.1147 -0.0252626 16.4482 3.20469 19.8757L22.0794 9.06493C22.4364 8.86191 22.7048 8.53466 22.8325 8.14657C22.9602 7.75848 22.9382 7.33717 22.7707 6.96428ZM5.48716 13.5266L3.26969 9.7172L13.8945 3.64094L16.1045 7.44046L5.48716 13.5266Z" fill="#FC954B"/>
<path d="M22.1536 9.10712L9.81127 16.1829C10.6529 17.1283 11.8304 17.7143 13.0975 17.8185C14.3925 17.9375 15.7258 17.6069 17.0974 16.8265C17.9614 16.35 18.7292 15.7194 19.3624 14.9664C19.9493 14.2329 20.3809 13.3893 20.6311 12.4863L25.176 13.8801C24.5927 16.7942 22.6636 19.1892 19.3886 21.065C17.3462 22.2347 15.3095 22.8742 13.2787 22.9833C11.2479 23.0924 9.39836 22.6903 7.73005 21.7768C6.06341 20.8624 4.71051 19.5149 3.67136 17.7342C2.64887 15.9758 2.14888 14.1488 2.17138 12.2531C2.18106 10.3821 2.71278 8.55021 3.70761 6.96058C4.71759 5.3295 6.13132 3.99313 7.9488 2.95149C9.72127 1.93464 11.5471 1.39398 13.4262 1.3295C15.2755 1.25882 17.1063 1.71633 18.7011 2.64768C20.3428 3.5926 21.7094 5.00006 22.8011 6.87006C22.8011 6.87006 22.8011 6.87874 22.8086 6.88494C23.0112 7.26729 23.0562 7.71279 22.934 8.12741C22.8118 8.54203 22.532 8.89332 22.1536 9.10712ZM7.8638 9.5895C7.44714 10.7204 7.48422 11.9158 7.97505 13.1757L16.8949 8.06795C16.0549 7.03457 15.0337 6.41 13.8312 6.19423C12.6287 5.97846 11.4437 6.20456 10.2763 6.87254C9.08628 7.55292 8.28213 8.45857 7.8638 9.5895Z" fill="#467599"/>
</svg>
