<svg width="104" height="29" viewBox="0 0 104 29" fill="none" xmlns="http://www.w3.org/2000/svg">
<g clip-path="url(#clip0)">
<path d="M22.7707 7.96428C20.1457 2.18067 12.9583 -1.12655 5.75841 2.54029C4.21843 3.324 2.3072 5.2374 1.52347 6.76887C-1.214 12.1147 -0.0252616 17.4482 3.20469 20.8757L22.0794 10.0649C22.4364 9.86191 22.7048 9.53466 22.8325 9.14657C22.9602 8.75848 22.9382 8.33718 22.7707 7.96428ZM5.48716 14.5266L3.26969 10.7172L13.8945 4.64094L16.1045 8.44046L5.48716 14.5266Z" fill="#FC954B"/>
<path d="M22.1536 10.1071L9.81127 17.1829C10.6529 18.1283 11.8304 18.7143 13.0975 18.8185C14.3925 18.9375 15.7258 18.6069 17.0974 17.8265C17.9614 17.35 18.7292 16.7194 19.3624 15.9664C19.9493 15.2329 20.3809 14.3893 20.6311 13.4863L25.176 14.8801C24.5927 17.7942 22.6636 20.1892 19.3886 22.065C17.3462 23.2347 15.3095 23.8742 13.2787 23.9833C11.2479 24.0924 9.39836 23.6903 7.73005 22.7768C6.06341 21.8624 4.71051 20.5149 3.67136 18.7342C2.64887 16.9758 2.14888 15.1488 2.17138 13.2531C2.18106 11.3821 2.71278 9.55021 3.70761 7.96058C4.71759 6.3295 6.13132 4.99313 7.9488 3.95149C9.72127 2.93464 11.5471 2.39398 13.4262 2.3295C15.2755 2.25882 17.1063 2.71633 18.7011 3.64768C20.3428 4.5926 21.7094 6.00006 22.8011 7.87006C22.8011 7.87006 22.8011 7.87874 22.8086 7.88494C23.0112 8.26729 23.0562 8.71279 22.934 9.12741C22.8118 9.54203 22.532 9.89332 22.1536 10.1071ZM7.8638 10.5895C7.44714 11.7204 7.48422 12.9158 7.97505 14.1757L16.8949 9.06795C16.0549 8.03457 15.0337 7.41 13.8312 7.19423C12.6287 6.97846 11.4437 7.20456 10.2763 7.87254C9.08628 8.55292 8.28213 9.45857 7.8638 10.5895Z" fill="#467599"/>
<path d="M39.8799 5.19202V23H36.3039V21.512C35.3759 22.632 34.0319 23.192 32.2719 23.192C31.0559 23.192 29.9519 22.92 28.9599 22.376C27.9839 21.832 27.2159 21.056 26.6559 20.048C26.0959 19.04 25.8159 17.872 25.8159 16.544C25.8159 15.216 26.0959 14.048 26.6559 13.04C27.2159 12.032 27.9839 11.256 28.9599 10.712C29.9519 10.168 31.0559 9.89602 32.2719 9.89602C33.9199 9.89602 35.2079 10.416 36.1359 11.456V5.19202H39.8799ZM32.9199 20.12C33.8639 20.12 34.6479 19.8 35.2719 19.16C35.8959 18.504 36.2079 17.632 36.2079 16.544C36.2079 15.456 35.8959 14.592 35.2719 13.952C34.6479 13.296 33.8639 12.968 32.9199 12.968C31.9599 12.968 31.1679 13.296 30.5439 13.952C29.9199 14.592 29.6079 15.456 29.6079 16.544C29.6079 17.632 29.9199 18.504 30.5439 19.16C31.1679 19.8 31.9599 20.12 32.9199 20.12ZM56.3531 10.088V23H52.8011V21.464C52.3051 22.024 51.7131 22.456 51.0251 22.76C50.3371 23.048 49.5931 23.192 48.7931 23.192C47.0971 23.192 45.7531 22.704 44.7611 21.728C43.7691 20.752 43.2731 19.304 43.2731 17.384V10.088H47.0171V16.832C47.0171 18.912 47.8891 19.952 49.6331 19.952C50.5291 19.952 51.2491 19.664 51.7931 19.088C52.3371 18.496 52.6091 17.624 52.6091 16.472V10.088H56.3531Z" fill="#467599"/>
<path d="M76.2137 10.28C77.7977 10.28 79.0377 10.736 79.9337 11.648C80.8457 12.56 81.3017 13.904 81.3017 15.68V23H79.5977V15.848C79.5977 14.536 79.2777 13.536 78.6377 12.848C78.0137 12.16 77.1257 11.816 75.9737 11.816C74.6617 11.816 73.6297 12.224 72.8777 13.04C72.1257 13.84 71.7497 14.952 71.7497 16.376V23H70.0457V15.848C70.0457 14.536 69.7257 13.536 69.0857 12.848C68.4617 12.16 67.5657 11.816 66.3977 11.816C65.1017 11.816 64.0697 12.224 63.3017 13.04C62.5497 13.84 62.1737 14.952 62.1737 16.376V23H60.4697V10.376H62.1017V12.68C62.5497 11.912 63.1737 11.32 63.9737 10.904C64.7737 10.488 65.6937 10.28 66.7337 10.28C67.7897 10.28 68.7017 10.504 69.4697 10.952C70.2537 11.4 70.8377 12.064 71.2217 12.944C71.6857 12.112 72.3497 11.464 73.2137 11C74.0937 10.52 75.0937 10.28 76.2137 10.28ZM85.9228 10.376H87.6268V23H85.9228V10.376ZM86.7868 7.61602C86.4348 7.61602 86.1388 7.49602 85.8988 7.25602C85.6588 7.01602 85.5388 6.72802 85.5388 6.39202C85.5388 6.07202 85.6588 5.79202 85.8988 5.55202C86.1388 5.31202 86.4348 5.19202 86.7868 5.19202C87.1388 5.19202 87.4348 5.31202 87.6748 5.55202C87.9148 5.77602 88.0348 6.04802 88.0348 6.36802C88.0348 6.72002 87.9148 7.01602 87.6748 7.25602C87.4348 7.49602 87.1388 7.61602 86.7868 7.61602ZM97.6001 23.12C96.3521 23.12 95.2321 22.848 94.2401 22.304C93.2641 21.76 92.4961 21 91.9361 20.024C91.3761 19.032 91.0961 17.92 91.0961 16.688C91.0961 15.456 91.3761 14.352 91.9361 13.376C92.4961 12.4 93.2641 11.64 94.2401 11.096C95.2321 10.552 96.3521 10.28 97.6001 10.28C98.6881 10.28 99.6561 10.496 100.504 10.928C101.368 11.344 102.048 11.96 102.544 12.776L101.272 13.64C100.856 13.016 100.328 12.552 99.6881 12.248C99.0481 11.928 98.3521 11.768 97.6001 11.768C96.6881 11.768 95.8641 11.976 95.1281 12.392C94.4081 12.792 93.8401 13.368 93.4241 14.12C93.0241 14.872 92.8241 15.728 92.8241 16.688C92.8241 17.664 93.0241 18.528 93.4241 19.28C93.8401 20.016 94.4081 20.592 95.1281 21.008C95.8641 21.408 96.6881 21.608 97.6001 21.608C98.3521 21.608 99.0481 21.456 99.6881 21.152C100.328 20.848 100.856 20.384 101.272 19.76L102.544 20.624C102.048 21.44 101.368 22.064 100.504 22.496C99.6401 22.912 98.6721 23.12 97.6001 23.12Z" fill="#FC954B"/>
</g>
<defs>
<clipPath id="clip0">
<rect width="104" height="29" fill="white"/>
</clipPath>
</defs>
</svg>
