<svg width="267" height="351" viewBox="0 0 267 351" fill="none" xmlns="http://www.w3.org/2000/svg">
<rect width="267" height="350" fill="#304C61"/>
<path fill-rule="evenodd" clip-rule="evenodd" d="M200.455 272.254C201.715 240.23 234.629 232.256 267 233.141V350.077H161C166.426 336.396 173.36 329.614 179.904 323.212C190.013 313.323 199.193 304.343 200.455 272.254Z" fill="url(#paint0_linear)"/>
<path d="M187.68 286.984C193.303 260.905 242.903 250.18 267 248.077V350.077H143C144.004 349.726 146.213 347.237 147.016 340.087C148.02 331.149 180.652 319.582 187.68 286.984Z" fill="url(#paint1_linear)"/>
<path d="M45.7732 56.9312C64.6928 52.8955 72.4742 17.2955 74 0H0V89C0.254295 88.2794 2.05979 86.6939 7.24741 86.1174C13.732 85.3968 22.1237 61.9757 45.7732 56.9312Z" fill="url(#paint2_linear)"/>
<path fill-rule="evenodd" clip-rule="evenodd" d="M72.7595 62.0815C102.7 60.9066 110.155 30.1994 109.327 6.4226e-05H6.38943e-06V98.8905C12.79 93.828 19.1312 87.3595 25.1165 81.2541C34.3618 71.8232 42.7576 63.2588 72.7595 62.0815Z" fill="url(#paint3_linear)"/>
<mask id="mask0" mask-type="alpha" maskUnits="userSpaceOnUse" x="35" y="58" width="40" height="40">
<ellipse rx="19.2934" ry="19.3084" transform="matrix(0.353944 0.935266 -0.935509 0.353304 54.892 77.8662)" fill="#FF984E"/>
</mask>
<g mask="url(#mask0)">
<rect width="2.31521" height="43.2508" transform="matrix(0.353944 0.935266 -0.935509 0.353304 65.7653 53.1365)" fill="white"/>
<rect width="2.31521" height="43.2508" transform="matrix(0.353944 0.935266 -0.935509 0.353304 67.5406 57.828)" fill="white"/>
<rect width="2.31521" height="43.2508" transform="matrix(0.353944 0.935266 -0.935509 0.353304 69.4528 62.8804)" fill="white"/>
<rect width="2.31521" height="43.2508" transform="matrix(0.353944 0.935266 -0.935509 0.353304 71.2279 67.572)" fill="white"/>
<rect width="2.31521" height="43.2508" transform="matrix(0.353944 0.935266 -0.935509 0.353304 73.1403 72.6245)" fill="white"/>
<rect width="2.31521" height="43.2508" transform="matrix(0.353944 0.935266 -0.935509 0.353304 74.9156 77.316)" fill="white"/>
<rect width="2.31521" height="43.2508" transform="matrix(0.353944 0.935266 -0.935509 0.353304 76.8278 82.3685)" fill="white"/>
<rect width="2.31521" height="43.2508" transform="matrix(0.353944 0.935266 -0.935509 0.353304 78.6034 87.06)" fill="white"/>
</g>
<defs>
<linearGradient id="paint0_linear" x1="406.104" y1="454.928" x2="108.116" y2="228.863" gradientUnits="userSpaceOnUse">
<stop stop-color="white"/>
<stop offset="1" stop-color="white" stop-opacity="0"/>
</linearGradient>
<linearGradient id="paint1_linear" x1="191.194" y1="235.984" x2="291.889" y2="461.446" gradientUnits="userSpaceOnUse">
<stop stop-color="#FC954B"/>
<stop offset="1" stop-color="#FC954B" stop-opacity="0"/>
</linearGradient>
<linearGradient id="paint2_linear" x1="82.7732" y1="54.4089" x2="-80.2093" y2="-19.1674" gradientUnits="userSpaceOnUse">
<stop stop-color="#FC954B"/>
<stop offset="1" stop-color="#FC954B" stop-opacity="0"/>
</linearGradient>
<linearGradient id="paint3_linear" x1="-98.03" y1="-129.774" x2="112.75" y2="148.664" gradientUnits="userSpaceOnUse">
<stop stop-color="white"/>
<stop offset="1" stop-color="white" stop-opacity="0"/>
</linearGradient>
</defs>
</svg>
